<svg xmlns="http://www.w3.org/2000/svg" viewBox="0 0 48 48"><defs><style>.a,.b{fill:none;}.b{stroke:#000;stroke-linecap:round;stroke-linejoin:round;stroke-width:2px;}</style></defs><title>427_tr_h</title><rect class="a" width="48" height="48"></rect><path class="b" d="M7,20V12.49A4.49,4.49,0,0,1,11.49,8h25A4.49,4.49,0,0,1,41,12.49V20"></path><path class="b" d="M42,40V29.3A3.3,3.3,0,0,0,38.7,26H9.3A3.3,3.3,0,0,0,6,29.3V40"></path><line class="b" x1="6" y1="35" x2="42" y2="35"></line><path class="b" d="M30,20V17a2,2,0,0,0-2-2H20a2,2,0,0,0-2,2v3"></path></svg>